<svg xmlns="http://www.w3.org/2000/svg" viewBox="0 0 600 400" role="img" aria-labelledby="title4">
  <title id="title4">IoT Air Quality Monitoring System</title>
  <defs>
    <linearGradient id="bg4" x1="0" y1="0" x2="1" y2="1">
      <stop offset="0%" stop-color="#2c2c2e"/>
      <stop offset="100%" stop-color="#161617"/>
    </linearGradient>
    <linearGradient id="accent4" x1="0" y1="0" x2="1" y2="0">
      <stop offset="0%" stop-color="#ffdb70"/>
      <stop offset="100%" stop-color="#ffbb5c"/>
    </linearGradient>
    <radialGradient id="glow4" cx="50%" cy="35%" r="55%">
      <stop offset="0%" stop-color="#ffdb70" stop-opacity="0.16"/>
      <stop offset="100%" stop-color="#ffdb70" stop-opacity="0"/>
    </radialGradient>
  </defs>

  <rect width="600" height="400" fill="url(#bg4)"/>
  <rect width="600" height="400" fill="url(#glow4)"/>
  <circle cx="40" cy="370" r="120" fill="#ffdb70" opacity="0.03"/>
  <circle cx="565" cy="35" r="140" fill="#ffdb70" opacity="0.04"/>
  <rect x="1" y="1" width="598" height="398" rx="16" fill="none" stroke="#3a3a3c" stroke-width="2"/>
  <rect width="600" height="5" fill="url(#accent4)"/>

  <g transform="translate(280,150)">
    <g stroke="#ffdb70" stroke-width="4" stroke-linecap="round">
      <line x1="-50" y1="-12" x2="-35" y2="-12"/>
      <line x1="-50" y1="3" x2="-35" y2="3"/>
      <line x1="-50" y1="18" x2="-35" y2="18"/>
      <line x1="35" y1="-12" x2="50" y2="-12"/>
      <line x1="35" y1="3" x2="50" y2="3"/>
      <line x1="35" y1="18" x2="50" y2="18"/>
    </g>
    <rect x="-35" y="-22" width="70" height="50" rx="8" fill="#ffdb70" fill-opacity="0.08" stroke="#ffdb70" stroke-width="5"/>
    <circle cx="0" cy="3" r="7" fill="#ffdb70"/>
    <rect x="64" y="10" width="10" height="18" fill="#ffdb70" opacity="0.4"/>
    <rect x="80" y="-2" width="10" height="30" fill="#ffdb70" opacity="0.7"/>
    <rect x="96" y="-14" width="10" height="42" fill="#ffdb70" opacity="1"/>
  </g>

  <rect x="265" y="248" width="70" height="4" rx="2" fill="url(#accent4)"/>
  <text x="300" y="286" text-anchor="middle" font-family="Arial, Helvetica, sans-serif" font-size="26" font-weight="700" fill="#ffffff" letter-spacing="0.5">IoT Air Quality</text>
  <text x="300" y="320" text-anchor="middle" font-family="Arial, Helvetica, sans-serif" font-size="26" font-weight="700" fill="#ffffff" letter-spacing="0.5">Monitoring System</text>
</svg>
