<svg xmlns="http://www.w3.org/2000/svg" viewBox="0 0 600 400" role="img" aria-labelledby="title1">
  <title id="title1">Stateless Auth &amp; Rate-Limited API Service</title>
  <defs>
    <linearGradient id="bg1" x1="0" y1="0" x2="1" y2="1">
      <stop offset="0%" stop-color="#2c2c2e"/>
      <stop offset="100%" stop-color="#161617"/>
    </linearGradient>
    <linearGradient id="accent1" x1="0" y1="0" x2="1" y2="0">
      <stop offset="0%" stop-color="#ffdb70"/>
      <stop offset="100%" stop-color="#ffbb5c"/>
    </linearGradient>
    <radialGradient id="glow1" cx="50%" cy="35%" r="55%">
      <stop offset="0%" stop-color="#ffdb70" stop-opacity="0.16"/>
      <stop offset="100%" stop-color="#ffdb70" stop-opacity="0"/>
    </radialGradient>
  </defs>

  <rect width="600" height="400" fill="url(#bg1)"/>
  <rect width="600" height="400" fill="url(#glow1)"/>
  <circle cx="40" cy="370" r="120" fill="#ffdb70" opacity="0.03"/>
  <circle cx="565" cy="35" r="140" fill="#ffdb70" opacity="0.04"/>
  <rect x="1" y="1" width="598" height="398" rx="16" fill="none" stroke="#3a3a3c" stroke-width="2"/>
  <rect width="600" height="5" fill="url(#accent1)"/>

  <g transform="translate(300,150)" stroke="#ffdb70" stroke-width="5" stroke-linecap="round" stroke-linejoin="round">
    <path d="M0 -64 L50 -46 L50 -4 C50 36 28 58 0 70 C-28 58 -50 36 -50 -4 L-50 -46 Z" fill="#ffdb70" fill-opacity="0.08"/>
    <circle cx="0" cy="-8" r="10" fill="#ffdb70" stroke="none"/>
    <path d="M-5 0 L5 0 L5 22 L0 28 L-5 22 Z" fill="#ffdb70" stroke="none"/>
  </g>

  <rect x="265" y="248" width="70" height="4" rx="2" fill="url(#accent1)"/>
  <text x="300" y="286" text-anchor="middle" font-family="Arial, Helvetica, sans-serif" font-size="26" font-weight="700" fill="#ffffff" letter-spacing="0.5">Stateless Auth &amp;</text>
  <text x="300" y="320" text-anchor="middle" font-family="Arial, Helvetica, sans-serif" font-size="26" font-weight="700" fill="#ffffff" letter-spacing="0.5">Rate-Limited API</text>
</svg>
