<svg xmlns="http://www.w3.org/2000/svg" viewBox="0 0 600 400" role="img" aria-labelledby="title5">
  <title id="title5">Dr-LaBike</title>
  <defs>
    <linearGradient id="bg5" x1="0" y1="0" x2="1" y2="1">
      <stop offset="0%" stop-color="#2c2c2e"/>
      <stop offset="100%" stop-color="#161617"/>
    </linearGradient>
    <linearGradient id="accent5" x1="0" y1="0" x2="1" y2="0">
      <stop offset="0%" stop-color="#ffdb70"/>
      <stop offset="100%" stop-color="#ffbb5c"/>
    </linearGradient>
    <radialGradient id="glow5" cx="50%" cy="35%" r="55%">
      <stop offset="0%" stop-color="#ffdb70" stop-opacity="0.16"/>
      <stop offset="100%" stop-color="#ffdb70" stop-opacity="0"/>
    </radialGradient>
  </defs>

  <rect width="600" height="400" fill="url(#bg5)"/>
  <rect width="600" height="400" fill="url(#glow5)"/>
  <circle cx="40" cy="370" r="120" fill="#ffdb70" opacity="0.03"/>
  <circle cx="565" cy="35" r="140" fill="#ffdb70" opacity="0.04"/>
  <rect x="1" y="1" width="598" height="398" rx="16" fill="none" stroke="#3a3a3c" stroke-width="2"/>
  <rect width="600" height="5" fill="url(#accent5)"/>

  <g transform="translate(295,150)" stroke="#ffdb70" stroke-width="5" stroke-linecap="round" stroke-linejoin="round" fill="none">
    <circle cx="-35" cy="35" r="24"/>
    <circle cx="35" cy="35" r="24"/>
    <line x1="-10" y1="-25" x2="28" y2="-20"/>
    <line x1="-10" y1="-25" x2="5" y2="35"/>
    <line x1="28" y1="-20" x2="5" y2="35"/>
    <line x1="5" y1="35" x2="-35" y2="35"/>
    <line x1="28" y1="-20" x2="35" y2="35"/>
    <line x1="-18" y1="-30" x2="-2" y2="-30"/>
    <line x1="20" y1="-30" x2="36" y2="-30"/>
    <line x1="28" y1="-30" x2="28" y2="-20"/>
  </g>
  <g transform="translate(295,150)">
    <circle cx="52" cy="-35" r="18" fill="#1c1c1d" stroke="#ffdb70" stroke-width="4"/>
    <rect x="47" y="-44" width="10" height="18" rx="2" fill="#ffdb70"/>
    <rect x="43" y="-40" width="18" height="10" rx="2" fill="#ffdb70"/>
  </g>

  <rect x="265" y="248" width="70" height="4" rx="2" fill="url(#accent5)"/>
  <text x="300" y="305" text-anchor="middle" font-family="Arial, Helvetica, sans-serif" font-size="28" font-weight="700" fill="#ffffff" letter-spacing="0.5">Dr-LaBike</text>
</svg>
